# xmcd
#
# Track frame offsets: 
#        150
#        14360
#        27935
#        39857
#        52867
#        66570
#        79297
#        93955
#        106285
#        121302
#        134397
#        147700
#        158990
#        172855
#        185470
#        198835
#        212842
#        225805
#
# Disc length: 3198 seconds
#
# Revision: 2
# Processed by: cddbd v1.5.2PL0 Copyright (c) Steve Scherf et al.
# Submitted via: ExactAudioCopyFreeDBPlugin 1.0
#
DISCID=ed0c7c12
DTITLE=Billie Holiday - The Great Billie Holiday Disc 3
DYEAR=2000
DGENRE=Blues
TTITLE0=This Year's Kisses
TTITLE1=The Mood That I'm In
TTITLE2=Lets Call The Whole Thing Off
TTITLE3=What A Night, What A Moon, What A Girl
TTITLE4=Miss Brown To You
TTITLE5=A Sunbonnet Blue
TTITLE6=If You Were Mine
TTITLE7=It's Too Hot For Words
TTITLE8=It's Like Reaching For The Moon
TTITLE9=You Let Me Down
TTITLE10=I Must Have That Man
TTITLE11=How Could You
TTITLE12=All Of Me
TTITLE13=The Very Though Of You
TTITLE14=I've Got My Love To Keep Me Warm
TTITLE15=The Way You Look Tonight
TTITLE16=You Go To My Head
TTITLE17=The Man I Love
EXTD=
EXTT0=
EXTT1=
EXTT2=
EXTT3=
EXTT4=
EXTT5=
EXTT6=
EXTT7=
EXTT8=
EXTT9=
EXTT10=
EXTT11=
EXTT12=
EXTT13=
EXTT14=
EXTT15=
EXTT16=
EXTT17=
PLAYORDER=
